<svg width="21" height="24" viewBox="0 0 21 24" fill="none" xmlns="http://www.w3.org/2000/svg">
<g id="cancel (1) 1" clip-path="url(#clip0_281_2842)">
<path id="Vector" d="M11.8914 12.0008L20.7657 1.60119C21.0782 1.23505 21.0782 0.64143 20.7657 0.275337C20.4533 -0.0907557 19.9467 -0.0908026 19.6343 0.275337L10.76 10.6749L1.88575 0.275337C1.57331 -0.0908026 1.06675 -0.0908026 0.754349 0.275337C0.44195 0.641477 0.44191 1.2351 0.754349 1.60119L9.62861 12.0007L0.754349 22.4003C0.44191 22.7664 0.44191 23.3601 0.754349 23.7262C0.910549 23.9092 1.11531 24.0007 1.32007 24.0007C1.52483 24.0007 1.72955 23.9092 1.88579 23.7262L10.76 13.3266L19.6343 23.7262C19.7905 23.9092 19.9952 24.0007 20.2 24.0007C20.4048 24.0007 20.6095 23.9092 20.7657 23.7262C21.0782 23.36 21.0782 22.7664 20.7657 22.4003L11.8914 12.0008Z" fill="#56BAD1"/>
</g>
<defs>
<clipPath id="clip0_281_2842">
<rect width="20.48" height="24" fill="white" transform="translate(0.52002)"/>
</clipPath>
</defs>
</svg>
