<svg width="40" height="46" viewBox="0 0 40 46" fill="none" xmlns="http://www.w3.org/2000/svg">
<path id="Vector" d="M39.7207 19.384C35.8503 19.3932 32.0749 18.1862 28.9277 15.9334V31.6452C28.9266 34.5552 28.0371 37.3955 26.3782 39.7863C24.7194 42.1772 22.3701 44.0046 19.6446 45.0242C16.9191 46.0439 13.9472 46.2071 11.1264 45.4921C8.30562 44.7772 5.77032 43.2181 3.85953 41.0233C1.94874 38.8286 0.75354 36.1028 0.433738 33.2104C0.113936 30.318 0.684779 27.397 2.06994 24.8378C3.4551 22.2786 5.58855 20.2033 8.18501 18.8893C10.7815 17.5754 13.7172 17.0855 16.5996 17.4851V25.3875C15.2806 24.9727 13.8643 24.9852 12.5528 25.4233C11.2413 25.8614 10.1018 26.7026 9.29696 27.827C8.49214 28.9514 8.06318 30.3013 8.07132 31.684C8.07946 33.0667 8.5243 34.4114 9.34231 35.5262C10.1603 36.641 11.3097 37.4688 12.6262 37.8915C13.9428 38.3141 15.3592 38.3099 16.6732 37.8795C17.9872 37.4491 19.1317 36.6145 19.9431 35.4949C20.7545 34.3753 21.1914 33.0279 21.1913 31.6452V0.930176H28.9277C28.9223 1.58349 28.977 2.23592 29.0912 2.8792C29.36 4.31524 29.919 5.68135 30.7339 6.89395C31.5488 8.10656 32.6025 9.14017 33.8306 9.93158C35.5777 11.0868 37.6262 11.7026 39.7207 11.7021V19.384Z" fill="white"/>
</svg>
