<svg width="34" height="26" viewBox="0 0 34 26" fill="none" xmlns="http://www.w3.org/2000/svg">
<path id="Vector" d="M28.8648 2.61142C28.8554 2.59375 28.8398 2.5799 28.8209 2.57236C26.6327 1.59628 24.3235 0.900253 21.9511 0.501707C21.9296 0.497812 21.9073 0.500622 21.8875 0.509739C21.8677 0.518856 21.8513 0.533815 21.8408 0.552489C21.5263 1.10734 21.2409 1.67726 20.9855 2.26008C18.4283 1.88267 15.827 1.88267 13.2697 2.26008C13.0127 1.67578 12.7227 1.10572 12.401 0.552489C12.39 0.534221 12.3735 0.519606 12.3538 0.510548C12.3341 0.501491 12.3121 0.49841 12.2906 0.501707C9.91795 0.899417 7.60862 1.59549 5.42071 2.57242C5.40198 2.58014 5.38617 2.59332 5.37548 2.61014C1.00007 8.96272 -0.198517 15.1591 0.38947 21.2788C0.391124 21.2938 0.395863 21.3083 0.403407 21.3215C0.41095 21.3347 0.421143 21.3462 0.433379 21.3555C2.98114 23.1895 5.83083 24.5894 8.86087 25.4955C8.8822 25.5018 8.90499 25.5015 8.92616 25.4947C8.94733 25.488 8.96587 25.4751 8.97928 25.4578C9.63006 24.5969 10.2067 23.6853 10.7033 22.7322C10.7102 22.7192 10.7141 22.7048 10.7148 22.6902C10.7155 22.6755 10.713 22.6609 10.7075 22.6473C10.7019 22.6336 10.6935 22.6213 10.6827 22.611C10.6719 22.6008 10.659 22.5929 10.6449 22.5878C9.73553 22.2496 8.8552 21.8418 8.01212 21.3683C7.9968 21.3596 7.98394 21.3473 7.97467 21.3326C7.96539 21.3178 7.95999 21.3011 7.95894 21.2839C7.95789 21.2666 7.96123 21.2494 7.96865 21.2337C7.97607 21.218 7.98735 21.2043 8.0015 21.1939C8.1784 21.065 8.35542 20.931 8.52434 20.7956C8.53935 20.7836 8.55751 20.7759 8.57678 20.7734C8.59604 20.7709 8.61565 20.7736 8.6334 20.7813C14.1568 23.2321 20.1366 23.2321 25.5946 20.7813C25.6123 20.7731 25.6322 20.77 25.6517 20.7723C25.6713 20.7746 25.6897 20.7822 25.705 20.7943C25.874 20.9297 26.0509 21.065 26.2291 21.1939C26.2434 21.2042 26.2548 21.2178 26.2623 21.2335C26.2698 21.2491 26.2733 21.2663 26.2724 21.2835C26.2715 21.3008 26.2662 21.3175 26.257 21.3323C26.2479 21.3471 26.2351 21.3595 26.2198 21.3683C25.3787 21.8458 24.4976 22.2533 23.5858 22.5865C23.5717 22.5918 23.5588 22.5999 23.5481 22.6103C23.5374 22.6207 23.529 22.6332 23.5236 22.6469C23.5182 22.6607 23.5158 22.6754 23.5167 22.6901C23.5175 22.7048 23.5215 22.7191 23.5285 22.7322C24.0334 23.68 24.6092 24.5905 25.2512 25.4563C25.2642 25.4741 25.2827 25.4874 25.3039 25.4944C25.3252 25.5014 25.3482 25.5017 25.3696 25.4954C28.4051 24.5924 31.2598 23.1923 33.8107 21.3555C33.8231 21.3467 33.8335 21.3354 33.841 21.3224C33.8486 21.3094 33.8532 21.2949 33.8546 21.2801C34.5585 14.2051 32.6761 8.05949 28.8648 2.61142ZM11.5282 17.5525C9.86528 17.5525 8.49507 16.0689 8.49507 14.2468C8.49507 12.4247 9.8387 10.9409 11.5282 10.9409C13.2309 10.9409 14.5879 12.4376 14.5613 14.2467C14.5613 16.0689 13.2176 17.5525 11.5282 17.5525ZM22.7427 17.5525C21.0798 17.5525 19.7096 16.0689 19.7096 14.2468C19.7096 12.4247 21.0532 10.9409 22.7427 10.9409C24.4455 10.9409 25.8024 12.4376 25.7758 14.2467C25.7758 16.0689 24.4455 17.5525 22.7427 17.5525Z" fill="#56BAD1"/>
</svg>
