<svg width="62" height="46" viewBox="0 0 62 46" fill="none" xmlns="http://www.w3.org/2000/svg">
<path id="Vector" d="M52.1316 4.74929C52.1147 4.71748 52.0867 4.69256 52.0526 4.67898C48.1139 2.92203 43.9573 1.66919 39.6871 0.951804C39.6483 0.944791 39.6082 0.94985 39.5725 0.96626C39.5368 0.982671 39.5074 1.0096 39.4884 1.04321C38.9224 2.04194 38.4086 3.0678 37.949 4.11688C33.3458 3.43754 28.6636 3.43754 24.0605 4.11688C23.5978 3.06514 23.0758 2.03902 22.4968 1.04321C22.477 1.01033 22.4474 0.984021 22.4119 0.967717C22.3765 0.951414 22.3368 0.945868 22.298 0.951804C18.0273 1.66768 13.8705 2.92062 9.93227 4.67908C9.89856 4.69298 9.87011 4.7167 9.85086 4.74698C1.97513 16.1816 -0.182331 27.3351 0.876045 38.3505C0.879023 38.3775 0.887554 38.4037 0.901132 38.4274C0.91471 38.4511 0.933057 38.4719 0.955082 38.4886C5.54105 41.7899 10.6705 44.3097 16.1246 45.9407C16.163 45.9519 16.204 45.9514 16.2421 45.9392C16.2802 45.9271 16.3136 45.9039 16.3377 45.8728C17.5091 44.3232 18.5471 42.6823 19.441 40.9668C19.4533 40.9432 19.4603 40.9174 19.4616 40.891C19.4629 40.8647 19.4584 40.8383 19.4485 40.8138C19.4385 40.7892 19.4233 40.767 19.4039 40.7486C19.3845 40.7301 19.3612 40.7159 19.3357 40.7068C17.699 40.0979 16.1144 39.3639 14.5968 38.5117C14.5692 38.496 14.5461 38.4739 14.5294 38.4474C14.5127 38.4208 14.503 38.3907 14.5011 38.3597C14.4992 38.3287 14.5052 38.2977 14.5186 38.2694C14.5319 38.2412 14.5522 38.2166 14.5777 38.1977C14.8961 37.9658 15.2147 37.7245 15.5188 37.4809C15.5458 37.4592 15.5785 37.4454 15.6132 37.4408C15.6479 37.4363 15.6832 37.4412 15.7151 37.4551C25.6572 41.8665 36.4208 41.8665 46.2452 37.4551C46.2772 37.4403 46.3129 37.4347 46.3481 37.4388C46.3833 37.443 46.4165 37.4567 46.444 37.4785C46.7481 37.7222 47.0667 37.9658 47.3875 38.1977C47.4131 38.2164 47.4336 38.2408 47.4471 38.269C47.4607 38.2971 47.4669 38.328 47.4653 38.3591C47.4636 38.3901 47.4541 38.4203 47.4376 38.4469C47.4211 38.4735 47.3982 38.4958 47.3707 38.5117C45.8566 39.3711 44.2706 40.1046 42.6295 40.7045C42.604 40.7139 42.5809 40.7285 42.5616 40.7472C42.5423 40.7659 42.5273 40.7884 42.5175 40.8132C42.5078 40.8379 42.5035 40.8644 42.505 40.8909C42.5065 40.9173 42.5137 40.9432 42.5262 40.9668C43.4351 42.6727 44.4716 44.3116 45.6272 45.8701C45.6506 45.902 45.6838 45.926 45.7221 45.9386C45.7603 45.9513 45.8017 45.9519 45.8403 45.9404C51.3041 44.315 56.4426 41.7949 61.0343 38.4886C61.0566 38.4728 61.0752 38.4525 61.0889 38.429C61.1025 38.4056 61.1108 38.3796 61.1133 38.3528C62.3804 25.6179 58.992 14.5558 52.1316 4.74929ZM20.9258 31.6433C17.9325 31.6433 15.4661 28.9727 15.4661 25.6929C15.4661 22.4131 17.8847 19.7424 20.9258 19.7424C23.9907 19.7424 26.4332 22.4363 26.3854 25.6927C26.3854 28.9727 23.9667 31.6433 20.9258 31.6433ZM41.1118 31.6433C38.1186 31.6433 35.6522 28.9727 35.6522 25.6929C35.6522 22.4131 38.0708 19.7424 41.1118 19.7424C44.1769 19.7424 46.6193 22.4363 46.5715 25.6927C46.5715 28.9727 44.1769 31.6433 41.1118 31.6433Z" fill="white"/>
</svg>
