<svg width="31" height="26" viewBox="0 0 31 26" fill="none" xmlns="http://www.w3.org/2000/svg">
<path id="Vector" d="M27.7922 6.73045C27.8118 7.00387 27.8118 7.27735 27.8118 7.55078C27.8118 15.8906 21.4642 25.5 9.86256 25.5C6.28832 25.5 2.96803 24.4648 0.175049 22.668C0.68288 22.7266 1.17111 22.7461 1.69848 22.7461C4.64765 22.7461 7.36254 21.75 9.53052 20.0508C6.75707 19.9922 4.43285 18.1758 3.63205 15.6758C4.02271 15.7343 4.41331 15.7734 4.8235 15.7734C5.38989 15.7734 5.95634 15.6953 6.48365 15.5586C3.59303 14.9726 1.425 12.4336 1.425 9.36718V9.28908C2.26481 9.75783 3.24145 10.0508 4.27654 10.0898C2.57731 8.95698 1.46408 7.02341 1.46408 4.83589C1.46408 3.66404 1.77652 2.58982 2.32343 1.65231C5.42891 5.48044 10.0969 7.98039 15.3312 8.25388C15.2336 7.78513 15.175 7.29689 15.175 6.8086C15.175 3.332 17.9875 0.5 21.4836 0.5C23.3 0.5 24.9406 1.26172 26.093 2.49219C27.5187 2.21876 28.8859 1.69139 30.0969 0.968753C29.6281 2.43363 28.632 3.6641 27.3234 4.4453C28.593 4.30864 29.8234 3.957 30.9562 3.46877C30.097 4.71872 29.0227 5.83196 27.7922 6.73045Z" fill="#56BAD1"/>
</svg>
