<svg width="46" height="46" viewBox="0 0 46 46" fill="none" xmlns="http://www.w3.org/2000/svg">
<path id="Vector" d="M23.4717 11.8927C17.0855 11.8927 11.9343 17.0439 11.9343 23.4302C11.9343 29.8164 17.0855 34.9676 23.4717 34.9676C29.858 34.9676 35.0091 29.8164 35.0091 23.4302C35.0091 17.0439 29.858 11.8927 23.4717 11.8927ZM23.4717 30.931C19.3447 30.931 15.9709 27.5672 15.9709 23.4302C15.9709 19.2932 19.3347 15.9293 23.4717 15.9293C27.6087 15.9293 30.9725 19.2932 30.9725 23.4302C30.9725 27.5672 27.5987 30.931 23.4717 30.931ZM38.1721 11.4208C38.1721 12.917 36.9672 14.1119 35.4811 14.1119C33.9849 14.1119 32.79 12.9069 32.79 11.4208C32.79 9.93469 33.995 8.72974 35.4811 8.72974C36.9672 8.72974 38.1721 9.93469 38.1721 11.4208ZM45.8136 14.152C45.6429 10.5472 44.8195 7.35408 42.1786 4.72327C39.5478 2.09245 36.3547 1.26907 32.7499 1.08833C29.0346 0.877459 17.8988 0.877459 14.1835 1.08833C10.5887 1.25903 7.39562 2.08241 4.75476 4.71323C2.11391 7.34404 1.30056 10.5372 1.11982 14.142C0.908953 17.8573 0.908953 28.993 1.11982 32.7083C1.29052 36.3131 2.11391 39.5063 4.75476 42.1371C7.39562 44.7679 10.5787 45.5913 14.1835 45.772C17.8988 45.9829 29.0346 45.9829 32.7499 45.772C36.3547 45.6013 39.5478 44.7779 42.1786 42.1371C44.8094 39.5063 45.6328 36.3131 45.8136 32.7083C46.0244 28.993 46.0244 17.8673 45.8136 14.152ZM41.0138 36.6947C40.2306 38.6628 38.7144 40.179 36.7362 40.9723C33.7741 42.1471 26.7452 41.876 23.4717 41.876C20.1983 41.876 13.1593 42.1371 10.2072 40.9723C8.23909 40.1891 6.72286 38.6728 5.92959 36.6947C4.75476 33.7325 5.02588 26.7036 5.02588 23.4302C5.02588 20.1567 4.76481 13.1178 5.92959 10.1656C6.71281 8.19755 8.22905 6.68132 10.2072 5.88806C13.1694 4.71323 20.1983 4.98434 23.4717 4.98434C26.7452 4.98434 33.7841 4.72327 36.7362 5.88806C38.7043 6.67128 40.2206 8.18751 41.0138 10.1656C42.1887 13.1278 41.9175 20.1567 41.9175 23.4302C41.9175 26.7036 42.1887 33.7426 41.0138 36.6947Z" fill="white"/>
</svg>
