<svg width="46" height="46" viewBox="0 0 46 46" fill="none" xmlns="http://www.w3.org/2000/svg">
<path id="Vector" d="M10.1062 45.9487H0.776523V15.9045H10.1062V45.9487ZM5.43634 11.8062C2.45301 11.8062 0.0332031 9.33519 0.0332031 6.35186C0.0332031 4.91886 0.60246 3.54456 1.61574 2.53127C2.62903 1.51799 4.00334 0.94873 5.43634 0.94873C6.86934 0.94873 8.24365 1.51799 9.25693 2.53127C10.2702 3.54456 10.8395 4.91886 10.8395 6.35186C10.8395 9.33519 8.41866 11.8062 5.43634 11.8062ZM45.0242 45.9487H35.7146V31.3234C35.7146 27.8378 35.6443 23.3679 30.8639 23.3679C26.0132 23.3679 25.2699 27.1548 25.2699 31.0723V45.9487H15.9503V15.9045H24.8983V20.0028H25.0288C26.2744 17.6423 29.317 15.1512 33.8563 15.1512C43.2985 15.1512 45.0342 21.3689 45.0342 29.445V45.9487H45.0242Z" fill="white"/>
</svg>
