<svg width="24" height="18" viewBox="0 0 24 18" fill="none" xmlns="http://www.w3.org/2000/svg">
<g id="Menu">
<path id="Vector" d="M0.74998 2.12496H23.25C23.664 2.12496 23.9999 1.78893 23.9999 1.37498C23.9999 0.960964 23.6639 0.625 23.25 0.625H0.74998C0.336026 0.625 0 0.960964 0 1.37498C0 1.789 0.336026 2.12496 0.74998 2.12496Z" fill="#56BAD1"/>
<path id="Vector_2" d="M23.2501 8.125H0.74998C0.335964 8.125 0 8.46103 0 8.87498C0 9.28894 0.336026 9.62496 0.74998 9.62496H23.2501C23.6641 9.62496 24.0001 9.28894 24.0001 8.87498C24.0001 8.46103 23.6641 8.125 23.2501 8.125Z" fill="#56BAD1"/>
<path id="Vector_3" d="M23 15.875H0.999966C0.447948 15.875 0 16.211 0 16.625C0 17.039 0.448031 17.375 0.999966 17.375H23C23.552 17.375 24 17.039 24 16.625C24.0001 16.211 23.552 15.875 23 15.875Z" fill="#56BAD1"/>
</g>
</svg>
